<svg width="21" height="26" viewBox="0 0 21 26" fill="none" xmlns="http://www.w3.org/2000/svg">
<path d="M10.4 26C11.83 26 13 24.8 13 23.3333H7.8C7.8 24.8 8.97 26 10.4 26ZM18.2 18V11.3333C18.2 7.24 16.081 3.81333 12.35 2.90667V2C12.35 0.893333 11.479 0 10.4 0C9.321 0 8.45 0.893333 8.45 2V2.90667C4.732 3.81333 2.6 7.22667 2.6 11.3333V18L0 20.6667V22H20.8V20.6667L18.2 18ZM15.6 19.3333H5.2V11.3333C5.2 8.02667 7.163 5.33333 10.4 5.33333C13.637 5.33333 15.6 8.02667 15.6 11.3333V19.3333Z" fill="#939FBB"/>
</svg>
